# xmcd
#
# Track frame offsets:
#	150
#	20618
#	42710
#	62935
#	83173
#	99250
#	118123
#	137055
#	154850
#	176233
#
# Disc length: 2594 seconds
#
# Revision: 8
# Processed by: cddbd v1.5.2PL0 Copyright (c) Steve Scherf et al.
# Submitted via: EasyCDDAExtractor 2010.4.0.0
#
DISCID=8b0a200a
DTITLE=임재범 - 임재범 2
DYEAR=1900
DGENRE=Blues
TTITLE0=비상
TTITLE1=그대는 어디에
TTITLE2=사랑보다 깊은 상처
TTITLE3=그대... 내게와
TTITLE4=또다른 날을 위해
TTITLE5=추락
TTITLE6=궤변... (광란의 축제)
TTITLE7=Wish
TTITLE8=최선의 고백
TTITLE9=아름다운 오해
EXTD=
EXTT0=
EXTT1=
EXTT2=
EXTT3=
EXTT4=
EXTT5=
EXTT6=
EXTT7=
EXTT8=
EXTT9=
PLAYORDER=
